<svg width="100" height="100" viewBox="0 0 100 100" fill="none" xmlns="http://www.w3.org/2000/svg">
<path d="M50 23.4375C55.2536 23.4375 60.3892 24.9954 64.7573 27.9141C69.1255 30.8328 72.5301 34.9813 74.5405 39.835C76.551 44.6886 77.077 50.0295 76.0521 55.1821C75.0272 60.3347 72.4974 65.0677 68.7825 68.7825C65.0677 72.4974 60.3347 75.0272 55.1821 76.0521C50.0295 77.077 44.6886 76.551 39.835 74.5405C34.9813 72.5301 30.8328 69.1255 27.9141 64.7573C24.9954 60.3892 23.4375 55.2536 23.4375 50C23.4455 42.9576 26.2466 36.206 31.2263 31.2263C36.206 26.2466 42.9576 23.4455 50 23.4375ZM17.1875 50C17.1875 49.1712 16.8583 48.3763 16.2722 47.7903C15.6862 47.2042 14.8913 46.875 14.0625 46.875H10.9375C10.1087 46.875 9.31384 47.2042 8.72779 47.7903C8.14174 48.3763 7.8125 49.1712 7.8125 50C7.8125 50.8288 8.14174 51.6237 8.72779 52.2097C9.31384 52.7958 10.1087 53.125 10.9375 53.125H14.0625C14.8913 53.125 15.6862 52.7958 16.2722 52.2097C16.8583 51.6237 17.1875 50.8288 17.1875 50ZM26.798 77.6211C27.0952 77.3325 27.332 76.9877 27.4947 76.6068C27.6574 76.2258 27.7427 75.8163 27.7457 75.4021C27.7487 74.9879 27.6693 74.5772 27.5122 74.194C27.3551 73.8107 27.1233 73.4625 26.8304 73.1696C26.5375 72.8767 26.1892 72.645 25.806 72.4879C25.4227 72.3308 25.012 72.2515 24.5978 72.2545C24.1836 72.2576 23.7741 72.3429 23.3932 72.5056C23.0123 72.6684 22.6675 72.9052 22.3789 73.2023L20.1691 75.4121C19.8736 75.7011 19.6384 76.0458 19.477 76.4263C19.3156 76.8069 19.2313 77.2156 19.229 77.6289C19.2267 78.0422 19.3064 78.4519 19.4635 78.8342C19.6206 79.2165 19.852 79.5639 20.1443 79.8561C20.4365 80.1484 20.7839 80.3798 21.1662 80.5369C21.5485 80.694 21.9582 80.7737 22.3715 80.7714C22.7848 80.769 23.1935 80.6848 23.5741 80.5234C23.9546 80.362 24.2993 80.1268 24.5883 79.8313L26.798 77.6211ZM46.875 85.9375V89.0625C46.875 89.8913 47.2042 90.6862 47.7903 91.2722C48.3763 91.8583 49.1712 92.1875 50 92.1875C50.8288 92.1875 51.6237 91.8583 52.2097 91.2722C52.7958 90.6862 53.125 89.8913 53.125 89.0625V85.9375C53.125 85.1087 52.7958 84.3138 52.2097 83.7278C51.6237 83.1417 50.8288 82.8125 50 82.8125C49.1712 82.8125 48.3763 83.1417 47.7903 83.7278C47.2042 84.3138 46.875 85.1087 46.875 85.9375ZM73.202 77.6211L75.4117 79.8309C75.7007 80.1264 76.0454 80.3616 76.4259 80.523C76.8065 80.6844 77.2152 80.7687 77.6285 80.771C78.0418 80.7733 78.4515 80.6936 78.8338 80.5365C79.2161 80.3794 79.5635 80.148 79.8557 79.8557C80.148 79.5635 80.3794 79.2161 80.5365 78.8338C80.6936 78.4515 80.7733 78.0418 80.771 77.6285C80.7687 77.2152 80.6844 76.8065 80.523 76.4259C80.3616 76.0454 80.1264 75.7007 79.8309 75.4117L77.6211 73.202C77.0329 72.6267 76.2415 72.3067 75.4188 72.3113C74.596 72.3159 73.8083 72.6448 73.2265 73.2265C72.6448 73.8083 72.3159 74.596 72.3113 75.4188C72.3067 76.2415 72.6267 77.0329 73.202 77.6211V77.6211ZM82.8125 50C82.8125 50.8288 83.1417 51.6237 83.7278 52.2097C84.3138 52.7958 85.1087 53.125 85.9375 53.125H89.0625C89.8913 53.125 90.6862 52.7958 91.2722 52.2097C91.8583 51.6237 92.1875 50.8288 92.1875 50C92.1875 49.1712 91.8583 48.3763 91.2722 47.7903C90.6862 47.2042 89.8913 46.875 89.0625 46.875H85.9375C85.1087 46.875 84.3138 47.2042 83.7278 47.7903C83.1417 48.3763 82.8125 49.1712 82.8125 50ZM73.202 22.3789C72.6267 22.9671 72.3067 23.7585 72.3113 24.5812C72.3159 25.404 72.6448 26.1917 73.2265 26.7735C73.8083 27.3552 74.596 27.6841 75.4188 27.6887C76.2415 27.6933 77.0329 27.3733 77.6211 26.798L79.8309 24.5883C80.4061 24 80.7261 23.2087 80.7215 22.386C80.7169 21.5632 80.388 20.7755 79.8063 20.1937C79.2245 19.612 78.4368 19.2831 77.614 19.2785C76.7913 19.2739 76 19.5939 75.4117 20.1691L73.202 22.3789ZM46.875 10.9375V14.0625C46.875 14.8913 47.2042 15.6862 47.7903 16.2722C48.3763 16.8583 49.1712 17.1875 50 17.1875C50.8288 17.1875 51.6237 16.8583 52.2097 16.2722C52.7958 15.6862 53.125 14.8913 53.125 14.0625V10.9375C53.125 10.1087 52.7958 9.31384 52.2097 8.72779C51.6237 8.14174 50.8288 7.8125 50 7.8125C49.1712 7.8125 48.3763 8.14174 47.7903 8.72779C47.2042 9.31384 46.875 10.1087 46.875 10.9375ZM27.7133 24.5883C27.7138 24.1778 27.6332 23.7713 27.4761 23.3921C27.3191 23.0129 27.0886 22.6684 26.798 22.3785L24.5883 20.1691C24.2993 19.8736 23.9546 19.6384 23.5741 19.477C23.1935 19.3156 22.7848 19.2313 22.3715 19.229C21.9582 19.2267 21.5485 19.3064 21.1662 19.4635C20.7839 19.6206 20.4365 19.852 20.1443 20.1443C19.852 20.4365 19.6206 20.7839 19.4635 21.1662C19.3064 21.5485 19.2267 21.9582 19.229 22.3715C19.2313 22.7848 19.3156 23.1935 19.477 23.5741C19.6384 23.9546 19.8736 24.2993 20.1691 24.5883L22.3789 26.798C22.816 27.235 23.3728 27.5325 23.9789 27.653C24.585 27.7735 25.2133 27.7116 25.7843 27.4751C26.3552 27.2386 26.8432 26.8381 27.1866 26.3242C27.5299 25.8104 27.7132 25.2063 27.7133 24.5883V24.5883Z" fill="#545454"/>
</svg>
